<svg width="1em" height="1em" viewBox="0 0 24 24" fill="none" xmlns="http://www.w3.org/2000/svg">
    <path d="M2.5 2.5a1 1 0 0 1 1-1h12.865a5.24 5.24 0 0 1 3.631 1.447A4.848 4.848 0 0 1 21.5 6.441V21.5a1 1 0 0 1-1 1H7.635a5.24 5.24 0 0 1-3.63-1.447A4.849 4.849 0 0 1 2.5 17.559V2.5Z"
          fill="#8D55ED"></path>
    <path d="M7.5 7a1 1 0 0 0 0 2h1a1 1 0 1 0 0-2h-1Zm5 0a1 1 0 1 0 0 2h4a1 1 0 1 0 0-2h-4Zm-5 4a1 1 0 1 0 0 2h1a1 1 0 1 0 0-2h-1Zm5 0a1 1 0 1 0 0 2h4a1 1 0 1 0 0-2h-4Zm-6 5a1 1 0 0 1 1-1h1a1 1 0 1 1 0 2h-1a1 1 0 0 1-1-1Zm5 0a1 1 0 0 1 1-1h4a1 1 0 1 1 0 2h-4a1 1 0 0 1-1-1Z"
          fill="#fff"></path>
</svg>